<svg width="45" height="25" viewBox="0 0 45 25" fill="currentColor" xmlns="http://www.w3.org/2000/svg">
<path d="M40.7419 13.6313C41.3088 13.6313 41.765 13.7627 42.1106 14.0253C42.4562 14.288 42.7143 14.6083 42.8848 14.9862H42.9677V13.7281H45V21.318C45 21.9401 44.8456 22.4677 44.5369 22.9009C44.2281 23.3341 43.7995 23.659 43.2512 23.8756C42.7028 24.0968 42.0691 24.2074 41.3502 24.2074C40.6682 24.2074 40.0737 24.1106 39.5668 23.9171C39.0599 23.7235 38.6613 23.4493 38.371 23.0945C38.0853 22.7442 37.9217 22.3318 37.8802 21.8571H39.8986C39.9539 22.1475 40.1106 22.3641 40.3687 22.5069C40.6313 22.6544 40.9724 22.7281 41.3917 22.7281C41.894 22.7281 42.2834 22.6106 42.5599 22.3756C42.841 22.1452 42.9816 21.7788 42.9816 21.2765V19.9078H42.8848C42.7281 20.2535 42.47 20.5438 42.1106 20.7788C41.7558 21.0092 41.2995 21.1244 40.7419 21.1244C40.1613 21.1244 39.6406 20.9885 39.1797 20.7166C38.7189 20.4401 38.3548 20.0253 38.0876 19.4724C37.8203 18.9194 37.6866 18.2396 37.6866 17.4332C37.6866 16.6129 37.8226 15.9171 38.0945 15.3456C38.3664 14.7742 38.7327 14.3456 39.1936 14.0599C39.659 13.7742 40.1751 13.6313 40.7419 13.6313ZM4.70046 0C7.29657 0 9.40162 2.10444 9.40179 4.70046C9.40179 6.7933 8.03308 8.56403 6.14257 9.17281C6.75169 9.61832 7.14906 10.3366 7.14919 11.1489V12.7578L10.6262 8.87126C10.7406 8.72428 11.0281 8.44069 11.263 8.47984H14.2742C14.5762 8.56151 15.1063 8.8814 14.8125 9.50807L10.8465 13.9882C10.7649 14.0863 10.6508 14.3316 10.8465 14.5274L15.3266 20.085C15.4326 20.3136 15.454 20.8538 14.6907 21.1866H11.9974C11.875 21.2111 11.5512 21.1717 11.2379 20.8194L7.14919 16.3436V18.7872C7.14894 20.139 6.0532 21.2348 4.70132 21.235C3.34927 21.235 2.25285 20.1391 2.25259 18.7872V11.1489C2.25273 10.3371 2.64974 9.61925 3.25835 9.17368C1.36804 8.56485 0 6.79324 0 4.70046C0.000169628 2.10457 2.10454 0.000215903 4.70046 0ZM18.7742 21.235H16.7281V13.7281H18.7742V21.235ZM24.235 13.6175C24.47 13.6175 24.6866 13.6406 24.8848 13.6866V15.5115C24.7834 15.4839 24.6475 15.4585 24.477 15.4355C24.3065 15.4124 24.1521 15.4009 24.0138 15.4009C23.7097 15.4009 23.4355 15.4677 23.1912 15.6014C22.947 15.735 22.7558 15.9217 22.6175 16.1613C22.4793 16.3963 22.4101 16.6636 22.4101 16.9631V21.235H20.3641V13.7281H22.341V15.0277H22.424C22.5576 14.5714 22.7857 14.2235 23.1083 13.9839C23.4309 13.7396 23.8065 13.6175 24.235 13.6175ZM27.9263 21.235H25.8802V13.7281H27.9263V21.235ZM33.8018 13.6313C34.3226 13.6313 34.7788 13.7442 35.1705 13.97C35.5622 14.1959 35.8641 14.523 36.076 14.9516C36.288 15.3756 36.3917 15.8756 36.3871 16.4516V21.235H34.3548V16.8111C34.3548 16.3502 34.235 15.9885 33.9954 15.7258C33.7558 15.4631 33.424 15.3318 33 15.3318C32.5622 15.3318 32.212 15.47 31.9493 15.7465C31.6912 16.023 31.5622 16.4055 31.5622 16.894V21.235H29.5161V13.7281H31.4654V15.0415H31.5484C31.7235 14.5991 32.0069 14.2535 32.3986 14.0046C32.7903 13.7558 33.2581 13.6313 33.8018 13.6313ZM41.3779 15.2627C40.871 15.2627 40.4793 15.4631 40.2028 15.8641C39.9263 16.2604 39.788 16.7926 39.788 17.4608C39.788 18.1198 39.924 18.6406 40.1959 19.023C40.4724 19.4009 40.8664 19.5899 41.3779 19.5899C41.8848 19.5899 42.2788 19.4032 42.5599 19.03C42.841 18.6521 42.9816 18.129 42.9816 17.4608C42.9816 16.7834 42.841 16.2488 42.5599 15.8571C42.2788 15.4608 41.8848 15.2627 41.3779 15.2627ZM17.7512 10.659C17.9493 10.659 18.1336 10.7074 18.3041 10.8041C18.4747 10.8963 18.6083 11.023 18.7051 11.1843C18.8065 11.3456 18.8571 11.5207 18.8571 11.7097C18.8571 11.894 18.8065 12.0668 18.7051 12.2281C18.6083 12.3848 18.4747 12.5115 18.3041 12.6083C18.1336 12.7005 17.9493 12.7465 17.7512 12.7465C17.5484 12.7465 17.3594 12.7005 17.1843 12.6083C17.0138 12.5115 16.8779 12.3848 16.7765 12.2281C16.6797 12.0668 16.6313 11.894 16.6313 11.7097C16.6313 11.5207 16.6797 11.3456 16.7765 11.1843C16.8779 11.023 17.0138 10.8963 17.1843 10.8041C17.3594 10.7074 17.5484 10.659 17.7512 10.659ZM26.9032 10.659C27.1014 10.659 27.2857 10.7074 27.4562 10.8041C27.6267 10.8963 27.7604 11.023 27.8571 11.1843C27.9585 11.3456 28.0092 11.5207 28.0092 11.7097C28.0092 11.894 27.9585 12.0668 27.8571 12.2281C27.7604 12.3848 27.6267 12.5115 27.4562 12.6083C27.2857 12.7005 27.1014 12.7465 26.9032 12.7465C26.7005 12.7465 26.5115 12.7005 26.3364 12.6083C26.1659 12.5115 26.03 12.3848 25.9286 12.2281C25.8318 12.0668 25.7834 11.894 25.7834 11.7097C25.7834 11.5207 25.8318 11.3456 25.9286 11.1843C26.03 11.023 26.1659 10.8963 26.3364 10.8041C26.5115 10.7074 26.7005 10.659 26.9032 10.659ZM4.70132 10.1691C4.26887 10.1691 3.91804 10.5196 3.91763 10.9519C3.91783 11.3844 4.26874 11.7356 4.70132 11.7356C5.13372 11.7354 5.48396 11.3843 5.48416 10.9519C5.48375 10.5197 5.13359 10.1693 4.70132 10.1691ZM4.70046 1.42051C2.88863 1.42063 1.41964 2.8895 1.41964 4.70133C1.41977 6.27799 2.53247 7.59427 4.01526 7.90956V7.14919C4.01526 6.74354 4.34405 6.41475 4.74971 6.41475C5.15533 6.4148 5.48416 6.74357 5.48416 7.14919V7.88623C6.9174 7.53469 7.98115 6.24288 7.98128 4.70133C7.98128 2.88942 6.5124 1.42051 4.70046 1.42051Z" fill="#6C3EF1"/>
</svg>
