<svg width="25" height="16" viewBox="0 0 25 16" fill="none" xmlns="http://www.w3.org/2000/svg">
<path d="M25 8C25 12.4183 21.4183 16 17 16C12.5817 16 9 12.4183 9 8C9 3.58172 12.5817 0 17 0C21.4183 0 25 3.58172 25 8Z" fill="#3EECAC"/>
<path fill-rule="evenodd" clip-rule="evenodd" d="M8 0C12.4183 0 16 3.58172 16 8C16 12.4183 12.4183 16 8 16C3.58172 16 0 12.4183 0 8C0 3.58172 3.58172 0 8 0ZM8 4C5.79086 4 4 5.79086 4 8C4 10.2091 5.79086 12 8 12C10.2091 12 12 10.2091 12 8C12 5.79086 10.2091 4 8 4Z" fill="#6C3EF1" fill-opacity="0.7"/>
</svg>
