<svg width="13" height="16" viewBox="0 0 13 16" fill="none" xmlns="http://www.w3.org/2000/svg">
<path d="M1.93722 1.86586C4.46204 -0.680173 8.49022 -0.612084 10.9344 2.01794C13.3786 4.64796 13.3132 8.84398 10.7884 11.39C10.7272 11.4518 10.6644 11.5113 10.6014 11.5699L10.6055 11.5744L6.21682 16L1.96825 11.4284L1.97218 11.4244C1.91106 11.3637 1.85051 11.3017 1.79122 11.2379C-0.652966 8.6079 -0.587601 4.41189 1.93722 1.86586Z" fill="#B6B6B6"/>
<path d="M8.56417 6.53506C8.56417 7.85284 7.53863 8.92111 6.27356 8.92111C5.00849 8.92111 3.98295 7.85284 3.98295 6.53506C3.98295 5.21728 5.00849 4.14901 6.27356 4.14901C7.53863 4.14901 8.56417 5.21728 8.56417 6.53506Z" fill="white"/>
</svg>
