<svg width="200" height="108" viewBox="0 0 200 108" fill="none" xmlns="http://www.w3.org/2000/svg">
<path d="M181.075 60.5837C183.594 60.5837 185.622 61.1674 187.158 62.3349C188.694 63.5023 189.841 64.9258 190.599 66.6052H190.968V61.0138H200V94.7466C200 97.5115 199.314 99.8566 197.942 101.782C196.569 103.707 194.665 105.151 192.227 106.114C189.79 107.097 186.974 107.588 183.779 107.588C180.748 107.588 178.105 107.158 175.853 106.298C173.6 105.438 171.828 104.219 170.538 102.642C169.268 101.086 168.541 99.2524 168.356 97.1429H177.327C177.573 98.4332 178.269 99.3958 179.416 100.031C180.584 100.686 182.099 101.014 183.963 101.014C186.196 101.014 187.926 100.492 189.155 99.447C190.405 98.423 191.029 96.7947 191.029 94.5622V88.4793H190.599C189.903 90.0154 188.756 91.3057 187.158 92.3502C185.581 93.3743 183.554 93.8863 181.075 93.8863C178.495 93.8863 176.18 93.2821 174.132 92.0737C172.084 90.8449 170.466 89.0015 169.278 86.5438C168.09 84.086 167.496 81.065 167.496 77.4808C167.496 73.8351 168.1 70.7425 169.309 68.2028C170.517 65.6631 172.145 63.7583 174.194 62.4885C176.262 61.2186 178.556 60.5837 181.075 60.5837ZM20.8909 0C32.4292 0 41.785 9.35306 41.7857 20.8909C41.7857 30.1924 35.7026 38.0624 27.3003 40.7681C30.0075 42.7481 31.7736 45.9403 31.7742 49.5507V56.7012L47.2273 39.4278C47.7358 38.7746 49.0136 37.5142 50.0576 37.6882H63.4409C64.783 38.0512 67.1389 39.4729 65.8333 42.2581L48.2066 62.1697C47.8439 62.6056 47.3367 63.6962 48.2066 64.5661L68.1183 89.2665C68.5892 90.2828 68.6844 92.6836 65.2919 94.1628H53.3218C52.7777 94.2715 51.3386 94.0965 49.9462 92.5307L31.7742 72.6383V83.4985C31.7731 89.5068 26.9031 94.377 20.8948 94.3779C14.8857 94.3779 10.0127 89.5073 10.0115 83.4985V49.5507C10.0121 45.9426 11.7766 42.7522 14.4816 40.7719C6.08016 38.066 0 30.1922 0 20.8909C0.000753901 9.35365 9.35349 0.000959571 20.8909 0ZM83.4409 94.3779H74.3472V61.0138H83.4409V94.3779ZM107.711 60.5223C108.756 60.5223 109.718 60.6247 110.599 60.8295V68.9401C110.148 68.8172 109.544 68.7046 108.786 68.6022C108.029 68.4998 107.343 68.4485 106.728 68.4485C105.376 68.4485 104.158 68.7455 103.072 69.3395C101.987 69.9334 101.137 70.7629 100.522 71.828C99.9078 72.8725 99.6006 74.0604 99.6006 75.3917V94.3779H90.5069V61.0138H99.2934V66.7896H99.6621C100.256 64.7619 101.27 63.2156 102.704 62.1505C104.137 61.065 105.806 60.5223 107.711 60.5223ZM124.117 94.3779H115.023V61.0138H124.117V94.3779ZM150.23 60.5837C152.545 60.5837 154.572 61.0855 156.313 62.0891C158.054 63.0927 159.396 64.5469 160.338 66.4516C161.28 68.3359 161.741 70.5581 161.72 73.1183V94.3779H152.688V74.7158C152.688 72.6677 152.156 71.0599 151.091 69.8925C150.026 68.725 148.551 68.1413 146.667 68.1413C144.721 68.1413 143.164 68.7558 141.997 69.9846C140.85 71.2135 140.277 72.9135 140.277 75.0845V94.3779H131.183V61.0138H139.846V66.851H140.215C140.993 64.8848 142.253 63.3487 143.994 62.2427C145.735 61.1367 147.814 60.5837 150.23 60.5837ZM183.902 67.8341C181.649 67.8341 179.908 68.725 178.679 70.5069C177.45 72.2683 176.836 74.6339 176.836 77.6037C176.836 80.5325 177.44 82.8469 178.648 84.5469C179.877 86.2263 181.628 87.0661 183.902 87.0661C186.155 87.0661 187.906 86.2366 189.155 84.5776C190.405 82.8981 191.029 80.5735 191.029 77.6037C191.029 74.5929 190.405 72.2171 189.155 70.4762C187.906 68.7148 186.155 67.8341 183.902 67.8341ZM78.894 47.3733C79.7747 47.3733 80.594 47.5883 81.3518 48.0184C82.1096 48.4281 82.7035 48.9913 83.1336 49.7081C83.5842 50.425 83.8095 51.2033 83.8095 52.043C83.8095 52.8623 83.5842 53.6303 83.1336 54.3472C82.7035 55.0435 82.1096 55.6068 81.3518 56.0369C80.594 56.4465 79.7747 56.6513 78.894 56.6513C77.9928 56.6513 77.1531 56.4465 76.3748 56.0369C75.617 55.6068 75.0128 55.0435 74.5622 54.3472C74.1321 53.6303 73.9171 52.8623 73.9171 52.043C73.9171 51.2033 74.1321 50.425 74.5622 49.7081C75.0128 48.9913 75.617 48.4281 76.3748 48.0184C77.1531 47.5883 77.9928 47.3733 78.894 47.3733ZM119.57 47.3733C120.451 47.3733 121.27 47.5883 122.028 48.0184C122.785 48.4281 123.379 48.9913 123.81 49.7081C124.26 50.425 124.485 51.2033 124.485 52.043C124.485 52.8623 124.26 53.6303 123.81 54.3472C123.379 55.0435 122.785 55.6068 122.028 56.0369C121.27 56.4465 120.451 56.6513 119.57 56.6513C118.669 56.6513 117.829 56.4465 117.051 56.0369C116.293 55.6068 115.689 55.0435 115.238 54.3472C114.808 53.6303 114.593 52.8623 114.593 52.043C114.593 51.2033 114.808 50.425 115.238 49.7081C115.689 48.9913 116.293 48.4281 117.051 48.0184C117.829 47.5883 118.669 47.3733 119.57 47.3733ZM20.8948 45.1959C18.9728 45.1959 17.4135 46.7536 17.4117 48.6751C17.4126 50.5974 18.9722 52.1582 20.8948 52.1582C22.8165 52.1572 24.3732 50.5968 24.374 48.6751C24.3722 46.7542 22.816 45.1968 20.8948 45.1959ZM20.8909 6.31336C12.8383 6.31392 6.30952 12.8422 6.30952 20.8948C6.3101 27.9022 11.2554 33.7523 17.8456 35.1536V31.7742C17.8456 29.9713 19.3069 28.51 21.1098 28.51C22.9126 28.5102 24.374 29.9714 24.374 31.7742V35.0499C30.744 33.4875 35.4718 27.7461 35.4724 20.8948C35.4724 12.8419 28.944 6.31336 20.8909 6.31336Z" fill="white"/>
</svg>
